<mxfile host="app.diagrams.net" agent="Mozilla/5.0 (Macintosh; Intel Mac OS X 10_15_7) AppleWebKit/605.1.15 (KHTML, like Gecko) Version/18.3 Safari/605.1.15" version="26.0.11">
  <diagram name="Page-1" id="JGW64n3bU-a4itc5jbn4">
    <mxGraphModel dx="954" dy="647" grid="1" gridSize="10" guides="1" tooltips="1" connect="1" arrows="1" fold="1" page="1" pageScale="1" pageWidth="850" pageHeight="1100" math="0" shadow="0">
      <root>
        <mxCell id="0" />
        <mxCell id="1" parent="0" />
        <mxCell id="Dxtvig9augjDvCzp3i8t-32" value="" style="edgeStyle=orthogonalEdgeStyle;rounded=0;orthogonalLoop=1;jettySize=auto;html=1;entryX=0.5;entryY=0;entryDx=0;entryDy=0;" edge="1" parent="1" source="Dxtvig9augjDvCzp3i8t-9" target="Dxtvig9augjDvCzp3i8t-27">
          <mxGeometry relative="1" as="geometry">
            <mxPoint x="410" y="340" as="targetPoint" />
            <Array as="points" />
          </mxGeometry>
        </mxCell>
        <mxCell id="Dxtvig9augjDvCzp3i8t-9" value="Level Manager" style="swimlane;fontStyle=0;childLayout=stackLayout;horizontal=1;startSize=30;horizontalStack=0;resizeParent=1;resizeParentMax=0;resizeLast=0;collapsible=1;marginBottom=0;whiteSpace=wrap;html=1;" vertex="1" parent="1">
          <mxGeometry x="340" y="160" width="140" height="90" as="geometry" />
        </mxCell>
        <mxCell id="Dxtvig9augjDvCzp3i8t-10" value="+InitBossSequence()" style="text;strokeColor=none;fillColor=none;align=left;verticalAlign=middle;spacingLeft=4;spacingRight=4;overflow=hidden;points=[[0,0.5],[1,0.5]];portConstraint=eastwest;rotatable=0;whiteSpace=wrap;html=1;" vertex="1" parent="Dxtvig9augjDvCzp3i8t-9">
          <mxGeometry y="30" width="140" height="30" as="geometry" />
        </mxCell>
        <mxCell id="Dxtvig9augjDvCzp3i8t-11" value="+WinLoseBool" style="text;strokeColor=none;fillColor=none;align=left;verticalAlign=middle;spacingLeft=4;spacingRight=4;overflow=hidden;points=[[0,0.5],[1,0.5]];portConstraint=eastwest;rotatable=0;whiteSpace=wrap;html=1;" vertex="1" parent="Dxtvig9augjDvCzp3i8t-9">
          <mxGeometry y="60" width="140" height="30" as="geometry" />
        </mxCell>
        <mxCell id="Dxtvig9augjDvCzp3i8t-27" value="Boss Character" style="swimlane;fontStyle=0;childLayout=stackLayout;horizontal=1;startSize=30;horizontalStack=0;resizeParent=1;resizeParentMax=0;resizeLast=0;collapsible=1;marginBottom=0;whiteSpace=wrap;html=1;" vertex="1" parent="1">
          <mxGeometry x="340" y="380" width="140" height="120" as="geometry" />
        </mxCell>
        <mxCell id="Dxtvig9augjDvCzp3i8t-28" value="+ int Health" style="text;strokeColor=none;fillColor=none;align=left;verticalAlign=middle;spacingLeft=4;spacingRight=4;overflow=hidden;points=[[0,0.5],[1,0.5]];portConstraint=eastwest;rotatable=0;whiteSpace=wrap;html=1;" vertex="1" parent="Dxtvig9augjDvCzp3i8t-27">
          <mxGeometry y="30" width="140" height="30" as="geometry" />
        </mxCell>
        <mxCell id="Dxtvig9augjDvCzp3i8t-29" value="+ int Level" style="text;strokeColor=none;fillColor=none;align=left;verticalAlign=middle;spacingLeft=4;spacingRight=4;overflow=hidden;points=[[0,0.5],[1,0.5]];portConstraint=eastwest;rotatable=0;whiteSpace=wrap;html=1;" vertex="1" parent="Dxtvig9augjDvCzp3i8t-27">
          <mxGeometry y="60" width="140" height="30" as="geometry" />
        </mxCell>
        <mxCell id="Dxtvig9augjDvCzp3i8t-45" value="&amp;nbsp;- bool Win/Lose" style="text;html=1;align=left;verticalAlign=middle;whiteSpace=wrap;rounded=0;" vertex="1" parent="Dxtvig9augjDvCzp3i8t-27">
          <mxGeometry y="90" width="140" height="30" as="geometry" />
        </mxCell>
        <mxCell id="Dxtvig9augjDvCzp3i8t-47" value="Jeff Beezos" style="swimlane;fontStyle=0;childLayout=stackLayout;horizontal=1;startSize=30;horizontalStack=0;resizeParent=1;resizeParentMax=0;resizeLast=0;collapsible=1;marginBottom=0;whiteSpace=wrap;html=1;" vertex="1" parent="1">
          <mxGeometry x="130" y="640" width="140" height="330" as="geometry" />
        </mxCell>
        <mxCell id="Dxtvig9augjDvCzp3i8t-98" value="str Name" style="text;html=1;align=left;verticalAlign=middle;whiteSpace=wrap;rounded=0;" vertex="1" parent="Dxtvig9augjDvCzp3i8t-47">
          <mxGeometry y="30" width="140" height="30" as="geometry" />
        </mxCell>
        <mxCell id="Dxtvig9augjDvCzp3i8t-99" value="Vector3 location" style="text;html=1;align=left;verticalAlign=middle;whiteSpace=wrap;rounded=0;" vertex="1" parent="Dxtvig9augjDvCzp3i8t-47">
          <mxGeometry y="60" width="140" height="30" as="geometry" />
        </mxCell>
        <mxCell id="Dxtvig9augjDvCzp3i8t-50" value="- MoveSequence1()" style="text;html=1;align=left;verticalAlign=middle;whiteSpace=wrap;rounded=0;" vertex="1" parent="Dxtvig9augjDvCzp3i8t-47">
          <mxGeometry y="90" width="140" height="30" as="geometry" />
        </mxCell>
        <mxCell id="Dxtvig9augjDvCzp3i8t-51" value="- MoveSequence2()" style="text;html=1;align=left;verticalAlign=middle;whiteSpace=wrap;rounded=0;" vertex="1" parent="Dxtvig9augjDvCzp3i8t-47">
          <mxGeometry y="120" width="140" height="30" as="geometry" />
        </mxCell>
        <mxCell id="Dxtvig9augjDvCzp3i8t-52" value="- MoveSequence3()" style="text;html=1;align=left;verticalAlign=middle;whiteSpace=wrap;rounded=0;" vertex="1" parent="Dxtvig9augjDvCzp3i8t-47">
          <mxGeometry y="150" width="140" height="30" as="geometry" />
        </mxCell>
        <mxCell id="Dxtvig9augjDvCzp3i8t-101" value="- PlayerLoseDialogue()" style="text;html=1;align=left;verticalAlign=middle;whiteSpace=wrap;rounded=0;" vertex="1" parent="Dxtvig9augjDvCzp3i8t-47">
          <mxGeometry y="180" width="140" height="30" as="geometry" />
        </mxCell>
        <mxCell id="Dxtvig9augjDvCzp3i8t-100" value="- exitDialogue()" style="text;html=1;align=left;verticalAlign=middle;whiteSpace=wrap;rounded=0;" vertex="1" parent="Dxtvig9augjDvCzp3i8t-47">
          <mxGeometry y="210" width="140" height="30" as="geometry" />
        </mxCell>
        <mxCell id="Dxtvig9augjDvCzp3i8t-53" value="- intoDialogue()" style="text;strokeColor=none;fillColor=none;align=left;verticalAlign=middle;spacingLeft=4;spacingRight=4;overflow=hidden;points=[[0,0.5],[1,0.5]];portConstraint=eastwest;rotatable=0;whiteSpace=wrap;html=1;" vertex="1" parent="Dxtvig9augjDvCzp3i8t-47">
          <mxGeometry y="240" width="140" height="30" as="geometry" />
        </mxCell>
        <mxCell id="Dxtvig9augjDvCzp3i8t-103" value="- Hurt()" style="text;html=1;align=left;verticalAlign=middle;whiteSpace=wrap;rounded=0;" vertex="1" parent="Dxtvig9augjDvCzp3i8t-47">
          <mxGeometry y="270" width="140" height="30" as="geometry" />
        </mxCell>
        <mxCell id="Dxtvig9augjDvCzp3i8t-104" value="- Hit()" style="text;html=1;align=left;verticalAlign=middle;whiteSpace=wrap;rounded=0;" vertex="1" parent="Dxtvig9augjDvCzp3i8t-47">
          <mxGeometry y="300" width="140" height="30" as="geometry" />
        </mxCell>
        <mxCell id="Dxtvig9augjDvCzp3i8t-76" value="" style="group" vertex="1" connectable="0" parent="1">
          <mxGeometry x="200" y="491" width="141" height="18" as="geometry" />
        </mxCell>
        <mxCell id="Dxtvig9augjDvCzp3i8t-70" value="" style="strokeWidth=2;html=1;shape=mxgraph.flowchart.merge_or_storage;whiteSpace=wrap;rotation=-90;" vertex="1" parent="Dxtvig9augjDvCzp3i8t-76">
          <mxGeometry x="122" y="-1" width="18" height="20" as="geometry" />
        </mxCell>
        <mxCell id="Dxtvig9augjDvCzp3i8t-73" value="" style="endArrow=none;html=1;rounded=0;entryX=0.5;entryY=0;entryDx=0;entryDy=0;exitX=0.5;exitY=0;exitDx=0;exitDy=0;exitPerimeter=0;" edge="1" parent="Dxtvig9augjDvCzp3i8t-76" source="Dxtvig9augjDvCzp3i8t-70" target="Dxtvig9augjDvCzp3i8t-47">
          <mxGeometry width="50" height="50" relative="1" as="geometry">
            <mxPoint x="80" y="-1" as="sourcePoint" />
            <mxPoint x="40" y="59" as="targetPoint" />
            <Array as="points">
              <mxPoint y="9" />
            </Array>
          </mxGeometry>
        </mxCell>
        <mxCell id="Dxtvig9augjDvCzp3i8t-78" value="" style="strokeWidth=2;html=1;shape=mxgraph.flowchart.merge_or_storage;whiteSpace=wrap;rotation=90;" vertex="1" parent="1">
          <mxGeometry x="480" y="489" width="18" height="20" as="geometry" />
        </mxCell>
        <mxCell id="Dxtvig9augjDvCzp3i8t-79" value="" style="endArrow=none;html=1;rounded=0;entryX=0.5;entryY=0;entryDx=0;entryDy=0;exitX=0.5;exitY=0;exitDx=0;exitDy=0;exitPerimeter=0;" edge="1" parent="1" source="Dxtvig9augjDvCzp3i8t-78">
          <mxGeometry width="50" height="50" relative="1" as="geometry">
            <mxPoint x="640" y="470" as="sourcePoint" />
            <mxPoint x="620" y="640" as="targetPoint" />
            <Array as="points">
              <mxPoint x="620" y="499" />
            </Array>
          </mxGeometry>
        </mxCell>
        <mxCell id="Dxtvig9augjDvCzp3i8t-83" value="" style="rounded=0;whiteSpace=wrap;html=1;" vertex="1" parent="1">
          <mxGeometry x="341" y="500" width="139" height="70" as="geometry" />
        </mxCell>
        <mxCell id="Dxtvig9augjDvCzp3i8t-84" value="&amp;nbsp;+ initBoss()" style="text;html=1;align=left;verticalAlign=middle;whiteSpace=wrap;rounded=0;" vertex="1" parent="1">
          <mxGeometry x="341" y="500" width="139" height="30" as="geometry" />
        </mxCell>
        <mxCell id="Dxtvig9augjDvCzp3i8t-85" value="&amp;nbsp;+ winSequence()" style="text;html=1;align=left;verticalAlign=middle;whiteSpace=wrap;rounded=0;" vertex="1" parent="1">
          <mxGeometry x="341" y="520" width="139" height="30" as="geometry" />
        </mxCell>
        <mxCell id="Dxtvig9augjDvCzp3i8t-86" value="&amp;nbsp;+ loseSequence()" style="text;html=1;align=left;verticalAlign=middle;whiteSpace=wrap;rounded=0;" vertex="1" parent="1">
          <mxGeometry x="340" y="540" width="140" height="30" as="geometry" />
        </mxCell>
        <mxCell id="Dxtvig9augjDvCzp3i8t-87" value="" style="endArrow=none;html=1;rounded=0;" edge="1" parent="1" source="Dxtvig9augjDvCzp3i8t-92" target="Dxtvig9augjDvCzp3i8t-88">
          <mxGeometry width="50" height="50" relative="1" as="geometry">
            <mxPoint x="480" y="400" as="sourcePoint" />
            <mxPoint x="600" y="400" as="targetPoint" />
          </mxGeometry>
        </mxCell>
        <mxCell id="Dxtvig9augjDvCzp3i8t-88" value="MonoBehavior" style="swimlane;fontStyle=0;childLayout=stackLayout;horizontal=1;startSize=30;horizontalStack=0;resizeParent=1;resizeParentMax=0;resizeLast=0;collapsible=1;marginBottom=0;whiteSpace=wrap;html=1;" vertex="1" parent="1">
          <mxGeometry x="620" y="340" width="140" height="90" as="geometry" />
        </mxCell>
        <mxCell id="Dxtvig9augjDvCzp3i8t-89" value="&amp;nbsp;+ field: type" style="text;strokeColor=none;fillColor=none;align=left;verticalAlign=middle;spacingLeft=4;spacingRight=4;overflow=hidden;points=[[0,0.5],[1,0.5]];portConstraint=eastwest;rotatable=0;whiteSpace=wrap;html=1;" vertex="1" parent="Dxtvig9augjDvCzp3i8t-88">
          <mxGeometry y="30" width="140" height="30" as="geometry" />
        </mxCell>
        <mxCell id="Dxtvig9augjDvCzp3i8t-90" value="&amp;nbsp;+ method(type): type" style="text;strokeColor=none;fillColor=none;align=left;verticalAlign=middle;spacingLeft=4;spacingRight=4;overflow=hidden;points=[[0,0.5],[1,0.5]];portConstraint=eastwest;rotatable=0;whiteSpace=wrap;html=1;" vertex="1" parent="Dxtvig9augjDvCzp3i8t-88">
          <mxGeometry y="60" width="140" height="30" as="geometry" />
        </mxCell>
        <mxCell id="Dxtvig9augjDvCzp3i8t-93" value="" style="endArrow=none;html=1;rounded=0;" edge="1" parent="1" target="Dxtvig9augjDvCzp3i8t-92">
          <mxGeometry width="50" height="50" relative="1" as="geometry">
            <mxPoint x="480" y="400" as="sourcePoint" />
            <mxPoint x="620" y="400" as="targetPoint" />
          </mxGeometry>
        </mxCell>
        <mxCell id="Dxtvig9augjDvCzp3i8t-92" value="" style="triangle;whiteSpace=wrap;html=1;" vertex="1" parent="1">
          <mxGeometry x="600" y="390" width="20" height="20" as="geometry" />
        </mxCell>
        <mxCell id="Dxtvig9augjDvCzp3i8t-94" value="" style="endArrow=none;html=1;rounded=0;exitX=0.5;exitY=0;exitDx=0;exitDy=0;" edge="1" parent="1" target="Dxtvig9augjDvCzp3i8t-95">
          <mxGeometry width="50" height="50" relative="1" as="geometry">
            <mxPoint x="420" y="640" as="sourcePoint" />
            <mxPoint x="530" y="600" as="targetPoint" />
          </mxGeometry>
        </mxCell>
        <mxCell id="Dxtvig9augjDvCzp3i8t-95" value="" style="triangle;whiteSpace=wrap;html=1;rotation=-90;" vertex="1" parent="1">
          <mxGeometry x="410" y="570" width="20" height="20" as="geometry" />
        </mxCell>
        <mxCell id="Dxtvig9augjDvCzp3i8t-105" value="Mark Zucchini" style="swimlane;fontStyle=0;childLayout=stackLayout;horizontal=1;startSize=30;horizontalStack=0;resizeParent=1;resizeParentMax=0;resizeLast=0;collapsible=1;marginBottom=0;whiteSpace=wrap;html=1;" vertex="1" parent="1">
          <mxGeometry x="350" y="640" width="140" height="330" as="geometry" />
        </mxCell>
        <mxCell id="Dxtvig9augjDvCzp3i8t-106" value="str Name" style="text;html=1;align=left;verticalAlign=middle;whiteSpace=wrap;rounded=0;" vertex="1" parent="Dxtvig9augjDvCzp3i8t-105">
          <mxGeometry y="30" width="140" height="30" as="geometry" />
        </mxCell>
        <mxCell id="Dxtvig9augjDvCzp3i8t-107" value="Vector3 location" style="text;html=1;align=left;verticalAlign=middle;whiteSpace=wrap;rounded=0;" vertex="1" parent="Dxtvig9augjDvCzp3i8t-105">
          <mxGeometry y="60" width="140" height="30" as="geometry" />
        </mxCell>
        <mxCell id="Dxtvig9augjDvCzp3i8t-108" value="- MoveSequence1()" style="text;html=1;align=left;verticalAlign=middle;whiteSpace=wrap;rounded=0;" vertex="1" parent="Dxtvig9augjDvCzp3i8t-105">
          <mxGeometry y="90" width="140" height="30" as="geometry" />
        </mxCell>
        <mxCell id="Dxtvig9augjDvCzp3i8t-109" value="- MoveSequence2()" style="text;html=1;align=left;verticalAlign=middle;whiteSpace=wrap;rounded=0;" vertex="1" parent="Dxtvig9augjDvCzp3i8t-105">
          <mxGeometry y="120" width="140" height="30" as="geometry" />
        </mxCell>
        <mxCell id="Dxtvig9augjDvCzp3i8t-110" value="- MoveSequence3()" style="text;html=1;align=left;verticalAlign=middle;whiteSpace=wrap;rounded=0;" vertex="1" parent="Dxtvig9augjDvCzp3i8t-105">
          <mxGeometry y="150" width="140" height="30" as="geometry" />
        </mxCell>
        <mxCell id="Dxtvig9augjDvCzp3i8t-111" value="- PlayerLoseDialogue()" style="text;html=1;align=left;verticalAlign=middle;whiteSpace=wrap;rounded=0;" vertex="1" parent="Dxtvig9augjDvCzp3i8t-105">
          <mxGeometry y="180" width="140" height="30" as="geometry" />
        </mxCell>
        <mxCell id="Dxtvig9augjDvCzp3i8t-112" value="- exitDialogue()" style="text;html=1;align=left;verticalAlign=middle;whiteSpace=wrap;rounded=0;" vertex="1" parent="Dxtvig9augjDvCzp3i8t-105">
          <mxGeometry y="210" width="140" height="30" as="geometry" />
        </mxCell>
        <mxCell id="Dxtvig9augjDvCzp3i8t-113" value="- intoDialogue()" style="text;strokeColor=none;fillColor=none;align=left;verticalAlign=middle;spacingLeft=4;spacingRight=4;overflow=hidden;points=[[0,0.5],[1,0.5]];portConstraint=eastwest;rotatable=0;whiteSpace=wrap;html=1;" vertex="1" parent="Dxtvig9augjDvCzp3i8t-105">
          <mxGeometry y="240" width="140" height="30" as="geometry" />
        </mxCell>
        <mxCell id="Dxtvig9augjDvCzp3i8t-114" value="- Hurt()" style="text;html=1;align=left;verticalAlign=middle;whiteSpace=wrap;rounded=0;" vertex="1" parent="Dxtvig9augjDvCzp3i8t-105">
          <mxGeometry y="270" width="140" height="30" as="geometry" />
        </mxCell>
        <mxCell id="Dxtvig9augjDvCzp3i8t-115" value="- Hit()" style="text;html=1;align=left;verticalAlign=middle;whiteSpace=wrap;rounded=0;" vertex="1" parent="Dxtvig9augjDvCzp3i8t-105">
          <mxGeometry y="300" width="140" height="30" as="geometry" />
        </mxCell>
        <mxCell id="Dxtvig9augjDvCzp3i8t-116" value="Melon Husk" style="swimlane;fontStyle=0;childLayout=stackLayout;horizontal=1;startSize=30;horizontalStack=0;resizeParent=1;resizeParentMax=0;resizeLast=0;collapsible=1;marginBottom=0;whiteSpace=wrap;html=1;" vertex="1" parent="1">
          <mxGeometry x="550" y="640" width="140" height="330" as="geometry" />
        </mxCell>
        <mxCell id="Dxtvig9augjDvCzp3i8t-117" value="str Name" style="text;html=1;align=left;verticalAlign=middle;whiteSpace=wrap;rounded=0;" vertex="1" parent="Dxtvig9augjDvCzp3i8t-116">
          <mxGeometry y="30" width="140" height="30" as="geometry" />
        </mxCell>
        <mxCell id="Dxtvig9augjDvCzp3i8t-118" value="Vector3 location" style="text;html=1;align=left;verticalAlign=middle;whiteSpace=wrap;rounded=0;" vertex="1" parent="Dxtvig9augjDvCzp3i8t-116">
          <mxGeometry y="60" width="140" height="30" as="geometry" />
        </mxCell>
        <mxCell id="Dxtvig9augjDvCzp3i8t-119" value="- MoveSequence1()" style="text;html=1;align=left;verticalAlign=middle;whiteSpace=wrap;rounded=0;" vertex="1" parent="Dxtvig9augjDvCzp3i8t-116">
          <mxGeometry y="90" width="140" height="30" as="geometry" />
        </mxCell>
        <mxCell id="Dxtvig9augjDvCzp3i8t-120" value="- MoveSequence2()" style="text;html=1;align=left;verticalAlign=middle;whiteSpace=wrap;rounded=0;" vertex="1" parent="Dxtvig9augjDvCzp3i8t-116">
          <mxGeometry y="120" width="140" height="30" as="geometry" />
        </mxCell>
        <mxCell id="Dxtvig9augjDvCzp3i8t-121" value="- MoveSequence3()" style="text;html=1;align=left;verticalAlign=middle;whiteSpace=wrap;rounded=0;" vertex="1" parent="Dxtvig9augjDvCzp3i8t-116">
          <mxGeometry y="150" width="140" height="30" as="geometry" />
        </mxCell>
        <mxCell id="Dxtvig9augjDvCzp3i8t-122" value="- PlayerLoseDialogue()" style="text;html=1;align=left;verticalAlign=middle;whiteSpace=wrap;rounded=0;" vertex="1" parent="Dxtvig9augjDvCzp3i8t-116">
          <mxGeometry y="180" width="140" height="30" as="geometry" />
        </mxCell>
        <mxCell id="Dxtvig9augjDvCzp3i8t-123" value="- exitDialogue()" style="text;html=1;align=left;verticalAlign=middle;whiteSpace=wrap;rounded=0;" vertex="1" parent="Dxtvig9augjDvCzp3i8t-116">
          <mxGeometry y="210" width="140" height="30" as="geometry" />
        </mxCell>
        <mxCell id="Dxtvig9augjDvCzp3i8t-124" value="- intoDialogue()" style="text;strokeColor=none;fillColor=none;align=left;verticalAlign=middle;spacingLeft=4;spacingRight=4;overflow=hidden;points=[[0,0.5],[1,0.5]];portConstraint=eastwest;rotatable=0;whiteSpace=wrap;html=1;" vertex="1" parent="Dxtvig9augjDvCzp3i8t-116">
          <mxGeometry y="240" width="140" height="30" as="geometry" />
        </mxCell>
        <mxCell id="Dxtvig9augjDvCzp3i8t-125" value="- Hurt()" style="text;html=1;align=left;verticalAlign=middle;whiteSpace=wrap;rounded=0;" vertex="1" parent="Dxtvig9augjDvCzp3i8t-116">
          <mxGeometry y="270" width="140" height="30" as="geometry" />
        </mxCell>
        <mxCell id="Dxtvig9augjDvCzp3i8t-126" value="- Hit()" style="text;html=1;align=left;verticalAlign=middle;whiteSpace=wrap;rounded=0;" vertex="1" parent="Dxtvig9augjDvCzp3i8t-116">
          <mxGeometry y="300" width="140" height="30" as="geometry" />
        </mxCell>
      </root>
    </mxGraphModel>
  </diagram>
</mxfile>
